<?xml version="1.0" encoding="UTF-8"?> <svg xmlns="http://www.w3.org/2000/svg" id="uuid-e512c58e-d529-4b29-8a7e-f789db5c43ae" data-name="Layer 2" width="2362.07" height="2761.82" viewBox="0 0 2362.07 2761.82"><g id="uuid-6e5bb660-3ea7-46e6-ab65-c8d36682ac81" data-name="Layer 1"><g><rect width="2362.07" height="2362.07" rx="4.12" ry="4.12" fill="#ff5f00"></rect><g><path d="M1127.91,1898.86h739.42c16.98,0,32.45-9.77,39.75-25.1l108.92-228.78c6.2-13.02-3.3-28.06-17.72-28.06h-566.15V499.6c0-19.93-16.18-36.07-36.11-36.02l-272.49.69,4.4,1434.59Z" fill="#fff"></path><path d="M1035.68,1359.23h-334.3l334.3-615.23v-280.8h-161.64c-17.27,0-38.85,6.54-53.95,34.83l-466.18,856.81c-15.09,28.29-10.78,34.83,0,60.93l84.18,191.34c12.96,23.95,21.58,32.64,41.01,32.64h556.58v-280.51Z" fill="#fff"></path></g><text transform="translate(1668.41 447.53)" fill="#f58751" font-family="MyriadPro-Regular, 'Myriad Pro'" font-size="175.01"><tspan x="0" y="0">TM</tspan></text></g><g><path d="M128.42,2587.04l-6.07,22.52c-8.67,32.17-25.59,44.81-56.59,44.81H25.65l-12.36,45.5c-.64,2.3-1.52,2.99-3.68,2.99H2.23c-2.17,0-2.61-.69-1.95-2.99l41.85-154.89c.64-2.29,1.52-2.98,3.68-2.98h50.3c31.01,0,40.77,14.02,32.31,45.03ZM92.43,2554.87h-39.9l-23.42,86.64h39.9c22.34,0,33.83-8.97,40.33-32.17l6.07-22.07c6.93-25.28-.65-32.4-22.99-32.4Z" fill="#fff"></path><path d="M128.84,2665.4l10.84-39.75c6.73-24.81,21.68-38.61,46.84-38.61h11.49c24.29,0,34.69,13.8,27.97,38.61l-10.85,39.75c-6.72,24.82-21.9,38.61-46.83,38.61h-11.49c-24.29,0-34.7-13.78-27.97-38.61ZM170.25,2691.6c17.56,0,27.75-9.65,32.31-26.42l10.62-39.3c4.56-16.77-.65-26.42-17.78-26.42h-11.05c-17.56,0-27.54,9.65-32.09,26.19l-10.63,39.53c-4.55,16.77.44,26.42,17.56,26.42h11.06Z" fill="#fff"></path><path d="M245.7,2699.18l3.68-107.78c.22-2.07.87-3.45,3.04-3.45h7.15c2.17,0,2.17,1.38,2.17,3.45l-3.25,98.13h.86l51.39-98.13c1.09-2.07,2.17-3.45,4.34-3.45h11.05c2.17,0,2.17,1.38,2.17,3.45l-.22,98.13h.87l48.14-98.13c1.08-2.07,2.17-3.45,4.34-3.45h8.45c2.17,0,1.95,1.38.87,3.45l-54.21,107.78c-1.3,2.53-3.25,3.68-5.64,3.68h-11.93c-2.39,0-3.03-1.15-3.03-3.68l.43-92.38h-.86l-49.22,92.38c-1.31,2.53-3.04,3.68-5.43,3.68h-11.93c-2.38,0-3.25-1.15-3.25-3.68Z" fill="#fff"></path><path d="M420.88,2704.01c-28.19,0-38.17-13.78-31.44-38.61l10.84-39.75c6.73-24.81,21.68-38.61,46.84-38.61h11.27c24.51,0,34.26,13.8,27.54,38.61l-4.98,18.15c-1.09,4.37-4.56,7.13-8.9,7.13h-65.92l-3.9,14.25c-4.55,16.77-.22,26.88,22.12,26.88h2.17c15.39,0,25.15-3.67,32.53-8.04,2.38-1.38,3.03-.92,3.47.46l1.52,3.91c.65,1.15.44,2.29-.44,2.98-7.81,6.44-22.33,12.64-40.32,12.64h-2.39ZM469.23,2640.13l3.91-14.25c4.55-16.77,0-26.42-17.35-26.42h-10.84c-17.56,0-27.54,9.42-32.09,26.19l-3.9,14.48h60.27Z" fill="#fff"></path><path d="M491.76,2700.11l29.49-109.39c.44-1.83,1.53-2.76,3.48-2.76h7.37c1.95,0,2.17.92,1.73,2.76l-2.81,10.34h2.16c7.82-8.73,19.09-14.02,32.09-14.02h4.12c19.09,0,24.94,10.81,19.95,29.19l-1.08,4.14c-.44,1.61-1.53,2.3-3.26,2.3h-6.72c-1.73,0-2.17-.92-1.73-2.77,3.03-11.94,2.38-20.44-12.8-20.44h-4.98c-17.14,0-29.92,10.11-34.48,27.11l-19.95,73.54c-.44,1.83-1.52,2.76-3.47,2.76h-7.38c-1.95,0-2.16-.92-1.73-2.76Z" fill="#fff"></path><path d="M627.06,2704.01c-28.19,0-38.17-13.78-31.44-38.61l10.84-39.75c6.73-24.81,21.68-38.61,46.84-38.61h11.27c24.51,0,34.26,13.8,27.54,38.61l-4.98,18.15c-1.09,4.37-4.56,7.13-8.9,7.13h-65.92l-3.9,14.25c-4.55,16.77-.22,26.88,22.12,26.88h2.17c15.39,0,25.15-3.67,32.53-8.04,2.38-1.38,3.03-.92,3.47.46l1.52,3.91c.65,1.15.44,2.29-.44,2.98-7.81,6.44-22.33,12.64-40.32,12.64h-2.39ZM675.41,2640.13l3.9-14.25c4.56-16.77,0-26.42-17.34-26.42h-10.84c-17.56,0-27.54,9.42-32.09,26.19l-3.9,14.48h60.27Z" fill="#fff"></path><path d="M824.15,2544.76l-42.07,155.34c-.44,1.83-1.52,2.76-3.47,2.76h-7.38c-1.95,0-2.17-.92-1.73-2.76l2.61-10.12h-1.73c-7.37,8.74-17.34,14.02-31.01,14.02h-7.59c-23.85,0-33.61-13.1-26.67-38.83l10.62-39.3c7.16-26.89,23.85-38.84,47.7-38.84h7.16c12.14,0,21.25,5.29,23.85,14.02h1.73l15.39-56.29c.44-1.85,1.3-2.76,3.25-2.76h7.38c1.95,0,2.38.91,1.95,2.76ZM779.04,2664.71l10.41-38.37c4.56-16.77-1.73-26.88-18.43-26.88h-8.89c-17.78,0-28.83,8.5-34.04,27.35l-10.19,37.45c-4.76,17.7.65,27.35,18.22,27.35h9.76c16.7,0,28.63-10.34,33.17-26.89Z" fill="#fff"></path><path d="M959.85,2625.88l-10.63,39.3c-6.93,25.73-23.63,38.83-47.49,38.83h-7.59c-13.02,0-21.04-5.28-23.63-14.02h-1.73l-2.61,10.12c-.65,1.83-1.52,2.76-3.47,2.76h-7.38c-1.95,0-2.38-.92-1.73-2.76l42.07-155.34c.44-1.85,1.3-2.76,3.25-2.76h7.38c1.95,0,2.39.91,1.95,2.76l-15.39,56.29h1.73c7.37-8.73,18.21-14.02,31.44-14.02h7.15c23.85,0,33.61,13.11,26.68,38.84ZM947.05,2626.8c4.77-17.7-.22-27.35-17.78-27.35h-10.41c-16.69,0-28.18,10.11-32.74,26.88l-10.41,38.37c-4.56,16.79,1.52,26.89,18.22,26.89h9.54c17.56,0,28.63-9.65,33.39-27.35l10.19-37.45Z" fill="#fff"></path><path d="M1078.65,2591.41l-93.68,148.68c-1.08,1.83-1.95,3.45-4.12,3.45h-8.45c-2.17,0-2.17-1.61-1.09-3.45l22.55-35.62-10.19-113.07c-.22-2.07.65-3.45,2.82-3.45h7.37c2.17,0,2.17,1.15,2.39,3.68l8.02,95.82h1.3l58.76-95.82c1.53-2.53,2.39-3.68,4.56-3.68h9.11c2.16,0,1.95,1.38.64,3.45Z" fill="#fff"></path></g><g><path d="M2341.51,2482.01v1.7c0,.29-.13.4-.41.4h-4.31v17.2c0,.29-.11.4-.38.4h-1.85c-.27,0-.38-.11-.38-.4v-17.2h-4.34c-.27,0-.41-.11-.41-.4v-1.7c0-.28.14-.4.41-.4h11.26c.27,0,.41.12.41.4Z" fill="#fff"></path><path d="M2345.14,2501.31v-19.3c0-.28.11-.4.38-.4h3.55c.27,0,.46.15.51.43l3.91,16.42h.19l3.93-16.42c.05-.28.24-.43.52-.43h3.55c.27,0,.38.12.38.4v19.3c0,.29-.11.4-.38.4h-1.84c-.27,0-.38-.11-.38-.4v-16.22h-.24l-3.85,16.19c-.05.29-.27.43-.51.43h-2.5c-.24,0-.46-.14-.51-.43l-3.85-16.19h-.24v16.22c0,.29-.11.4-.38.4h-1.84c-.27,0-.38-.11-.38-.4Z" fill="#fff"></path></g><path d="M1969.27,2611.68c3.95-4.43,7.97-8.8,12.01-13.18,11.82-12.82,24.04-26.09,33.77-40.76,21.14-31.87,17.78-69.85-8.78-99.13-11.49-12.67-23.07-19.31-36.05-20.58,16.5,12.92,26.95,30.27,29.31,49.12,2.43,19.32-3.87,39.37-17.72,56.43-8.73,10.76-18.61,20.69-28.16,30.31-7.26,7.31-14.78,14.87-21.7,22.72l-2.66,3.01c-12.44,14.05-25.29,28.58-34.9,44.8-17.81,30.08-13.85,66.53,10.07,92.82,11.13,12.24,23.33,19.11,37.98,21.31-.31-.25-.61-.47-.92-.68-15.9-10.79-26.15-27.04-28.86-45.75-2.8-19.31,2.54-39.24,14.64-54.68,7.88-10.05,16.85-19.32,25.52-28.28,5.47-5.65,11.13-11.5,16.44-17.47Z" fill="#ff5f00"></path><path d="M1975.49,2482.06c3.8,2.98,7.15,6.63,10.39,10.16.51.55,1.02,1.1,1.52,1.66.9-13.77-4.59-27.65-15.15-37.85-9.11-8.81-20.39-13.5-31.69-13.5-3.92,0-7.84.56-11.68,1.72-32.84,9.91-52.6,48.03-44.05,84.99,5.71,24.7,17.99,44.21,37.5,59.62l24.17-26.85c-.5-.48-1-.97-1.51-1.45-2.31-2.22-4.69-4.5-6.74-7.16-1.13-1.46-2.29-2.92-3.45-4.38-4.53-5.7-9.22-11.59-12.58-18.24-8.03-15.91-4.47-34.18,9.06-46.56,13.36-12.22,30.29-13.04,44.2-2.14Z" fill="#fff"></path><path d="M1936.74,2716.72c-4.1-3.12-7.72-7.01-11.22-10.78-.72-.78-1.45-1.56-2.18-2.34-1.39,11.79,3.68,25.62,13.55,36.28,12.19,13.17,28.38,18.2,44.44,13.77,30.49-8.4,50.77-41.82,46.17-76.1-3.73-27.79-16.54-50.37-39.14-68.97l-23.75,26.05c-.13.15-.28.39-.47.71.37.36.74.71,1.12,1.06,1.8,1.71,3.66,3.47,5.21,5.56,1.7,2.29,3.48,4.56,5.25,6.82,5.04,6.43,10.26,13.09,13.96,20.57,7.23,14.63,2.91,32.57-10.75,44.61-13.12,11.55-29.29,12.62-42.19,2.75Z" fill="#fff"></path><g><path d="M1147.16,2698.85v-212.6c0-3.16,1.2-4.43,4.18-4.43h20.3c2.98,0,4.18,1.27,4.18,4.43v212.6c0,3.16-1.19,4.43-4.18,4.43h-20.3c-2.98,0-4.18-1.27-4.18-4.43Z" fill="#ff5f00"></path><path d="M1209.84,2698.85v-149.32c0-2.85,1.2-4.43,4.18-4.43h19.7c2.39,0,3.88,1.58,3.88,4.43v12.66h3.88c6.87-11.39,20.3-18.35,37.31-18.35h6.87c34.03,0,47.76,18.67,47.76,53.46v101.55c0,2.85-1.79,4.43-4.18,4.43h-19.7c-2.98,0-4.18-1.58-4.18-4.43v-99.02c0-18.98-8.66-29.11-26.27-29.11h-12.24c-18.21,0-29.25,10.44-29.25,29.11v99.02c0,2.85-1.49,4.43-3.88,4.43h-19.7c-2.98,0-4.18-1.58-4.18-4.43Z" fill="#ff5f00"></path><path d="M1432.52,2549.53v17.4c0,3.16-1.2,4.75-4.18,4.75h-22.68v86.05c0,15.82,5.37,20.87,18.21,20.87,5.07,0,6.87,2.22,6.87,6.33v11.39c0,6.01-3.58,8.54-15.52,8.54-31.05,0-37.32-17.72-37.32-46.51v-86.68h-19.7c-2.69,0-4.18-1.58-4.18-4.75v-17.4c0-3.16,1.49-4.43,4.18-4.43h19.7v-30.69c0-2.85,1.2-4.11,3.88-4.11h19.7c2.98,0,4.18,1.27,4.18,4.11v30.69h22.68c2.98,0,4.18,1.26,4.18,4.43Z" fill="#ff5f00"></path><path d="M1514.9,2704.87c-42.98,0-60.3-21.51-60.3-54.42v-52.2c0-33.85,17.91-54.41,53.44-54.41h14.63c35.82,0,53.43,20.25,53.43,54.41v28.16c0,6.01-3.28,9.81-9.25,9.81h-84.48v13.92c0,17.08,10.15,29.1,33.13,29.1h2.98c20.6,0,31.05-4.11,39.41-9.17,2.69-1.58,4.48-.95,5.67,1.59l6.27,9.81c1.49,1.9,1.49,3.8.3,4.74-9.55,10.44-28.66,18.67-51.64,18.67h-3.58ZM1548.34,2614.07v-15.5c0-18.35-9.55-27.84-26.57-27.84h-12.84c-16.71,0-26.57,9.81-26.57,28.16v15.19h65.97Z" fill="#ff5f00"></path><path d="M1636.99,2759.92c-4.18-.63-6.57-2.53-6.57-6.01v-13.29c0-3.16,2.09-5.38,5.67-5.06,9.55.95,18.51.95,27.76.95,21.19,0,34.33-6.33,34.33-29.73v-19.3h-2.98c-6.87,10.44-17.91,17.4-35.22,17.4h-6.87c-33.43,0-50.45-18.67-50.45-53.47v-54.1c0-34.8,17.02-53.46,50.45-53.46h6.87c17.31,0,28.36,6.96,35.22,17.4h2.98v-11.71c0-2.85,1.79-4.43,3.88-4.43h20c2.69,0,4.18,1.58,4.18,4.43v157.24c0,41.13-20.3,55.05-63.58,55.05-7.76,0-17.02-.32-25.67-1.9ZM1671.31,2677.98c17.02,0,26.87-10.44,26.87-28.8v-49.67c0-18.35-9.85-28.79-26.87-28.79h-13.73c-17.32,0-27.17,10.12-27.17,29.11v49.04c0,18.98,9.85,29.11,27.17,29.11h13.73Z" fill="#ff5f00"></path><path d="M1757.28,2698.85v-149.32c0-2.85,1.2-4.43,4.18-4.43h19.7c2.39,0,3.88,1.58,3.88,4.43v12.66h3.88c6.87-11.39,19.7-18.35,36.42-18.35h4.48c27.76,0,38.81,15.5,38.81,44.61v6.65c0,2.84-1.49,4.43-3.88,4.43h-17.61c-2.69,0-4.18-1.58-4.18-4.43,0-14.87-5.97-24.36-22.69-24.36h-6.87c-17.61,0-28.36,10.44-28.36,29.11v99.02c0,2.85-1.49,4.43-3.88,4.43h-19.7c-2.98,0-4.18-1.58-4.18-4.43Z" fill="#ff5f00"></path></g><g><path d="M2251.98,2703.29h-20.3c-2.98,0-4.48-2.21-5.37-5.69l-9.55-35.75h-80.9l-9.55,35.75c-.9,3.48-2.39,5.69-5.38,5.69h-20.3c-2.69,0-4.48-2.21-3.58-5.69l56.12-210.7c.9-3.16,2.69-5.06,5.37-5.06h35.52c2.69,0,4.48,1.9,5.38,5.06l56.12,210.7c.9,3.48-.6,5.69-3.58,5.69ZM2209.89,2635.59l-31.64-119.59h-3.88l-31.64,119.59h67.17Z" fill="#fff"></path><path d="M2282.42,2698.85v-212.6c0-3.16,1.2-4.43,4.18-4.43h20.3c2.98,0,4.18,1.27,4.18,4.43v212.6c0,3.16-1.19,4.43-4.18,4.43h-20.3c-2.98,0-4.18-1.27-4.18-4.43Z" fill="#fff"></path></g></g></svg> 