<svg width="200" height="200" viewBox="0 0 200 200" fill="none" xmlns="http://www.w3.org/2000/svg">
  <g transform="translate(100,100) scale(2.1)">
    <path d="M0,-8 C-12,-8 -18,-20 -18,-28 C-18,-38 -10,-44 0,-44 C10,-44 18,-38 18,-28 C18,-20 12,-8 0,-8Z" fill="#48936E"/>
    <path d="M8,0 C8,-12 20,-18 28,-18 C38,-18 44,-10 44,0 C44,10 38,18 28,18 C20,18 8,12 8,0Z" fill="#5BAA80"/>
    <path d="M0,8 C12,8 18,20 18,28 C18,38 10,44 0,44 C-10,44 -18,38 -18,28 C-18,20 -12,8 0,8Z" fill="#7CC4A0"/>
    <path d="M-8,0 C-8,12 -20,18 -28,18 C-38,18 -44,10 -44,0 C-44,-10 -38,-18 -28,-18 C-20,-18 -8,-12 -8,0Z" fill="#A8DBBF"/>
    <circle cx="0" cy="0" r="5" fill="#D4EDDF"/>
  </g>
</svg>
